<svg xmlns="http://www.w3.org/2000/svg" enable-background="new 0 0 100 100" viewBox="0 0 100 100"><path d="M71.329,81.342c11.795-7.441,19.83-20.757,19.802-36.892c0-30.954-20.046-41.95-41.001-41.95
		c-60.837,2.814-51.614,97.658,9.385,83.744c8.259,14.759,20.56,11.188,23.734,10.024c0,0-0.426-2.597-1.171-7.432
		C76.144,88.685,73.5,85.707,71.329,81.342z M65.418,69.67c-8.112-10.467-18.639-7.959-21.163-6.822c0,0,0.322,2.401,0.99,6.765
		c5.568-0.002,8.326,2.886,10.252,6.615c-1.717,0.666-3.844,0.666-5.641,0.731c-9.756,0-21.44-4.213-21.44-30.509
		c0-26.29,12.236-33.549,21.993-33.549c9.754,0,21.099,6.256,21.099,32.549C71.45,57.329,69.17,65.148,65.418,69.67z"/></svg>