<svg xmlns="http://www.w3.org/2000/svg" enable-background="new 0 0 24 24" viewBox="0 0 24 24"><path fill="#110638" d="M18.404,23.996c-2.337,0-3.41-1.216-4.179-2.498c-0.733,0.149-1.48,0.225-2.226,0.225c-6.065,0-11-4.873-11-10.862S5.935,0,12,0s11,4.872,11,10.86c0,3.633-1.791,6.956-4.815,8.983c0.636,0.909,1.817,1.264,1.831,1.268c0.213,0.063,0.359,0.258,0.359,0.48v1.758c0,0.241-0.172,0.448-0.409,0.492C19.39,23.947,18.871,23.996,18.404,23.996z M14.475,20.432c0.178,0,0.346,0.095,0.436,0.254c0.819,1.453,1.731,2.625,4.465,2.238V21.94c-0.599-0.246-1.779-0.865-2.314-2.059c-0.104-0.23-0.02-0.5,0.195-0.631C20.227,17.438,22,14.302,22,10.86C22,5.423,17.514,1,12,1S2,5.424,2,10.862s4.486,9.862,10,9.862c0.791,0,1.585-0.094,2.358-0.278C14.397,20.436,14.437,20.432,14.475,20.432z"/><path fill="#110638" d="M11.998,19C8.578,19,6,15.224,6,10.217C6,5.833,8.354,3,11.998,3C15.645,3,18,5.833,18,10.217c0,3.55-0.537,5.688-1.689,6.728c-0.196,0.175-0.495,0.171-0.684-0.013c-0.614-0.598-2.244-1.926-4.627-1.975v1.037c0.635,0.19,1.831,0.71,2.695,2.067c0.085,0.134,0.102,0.301,0.044,0.45s-0.183,0.26-0.336,0.302C12.942,18.937,12.469,19,11.998,19z M11.998,4C8.915,4,7,6.382,7,10.217C7,14.654,9.148,18,11.998,18c0.125,0,0.251-0.005,0.376-0.017c-0.882-0.934-1.893-1.092-1.943-1.099C10.185,16.849,10,16.638,10,16.389v-1.924c0-0.266,0.209-0.486,0.475-0.5c2.625-0.136,4.514,1.095,5.467,1.902C16.653,14.904,17,13.046,17,10.217C17,6.382,15.083,4,11.998,4z"/></svg>