<svg xmlns="http://www.w3.org/2000/svg" viewBox="0 0 32 32"><path d="M4.5 32h23a.5.5 0 0 0 .5-.5v-27a.5.5 0 0 0-.5-.5H21v-.5a.5.5 0 0 0-.5-.5H18c0-1.103-.897-2-2-2s-2 .897-2 2h-2.5a.5.5 0 0 0-.5.5V4H4.5a.5.5 0 0 0-.5.5v27a.5.5 0 0 0 .5.5zM14.592 4a.501.501 0 0 0 .471-.667A1.004 1.004 0 0 1 15 3c0-.551.449-1 1-1s1 .449 1 1c0 .104-.021.213-.063.333a.501.501 0 0 0 .471.667H20v2h-8V4h2.592zM5 5h6v1.5a.5.5 0 0 0 .5.5h9a.5.5 0 0 0 .5-.5V5h6v26H5V5z"/><path d="M25.5 6h-3a.5.5 0 0 0 0 1H25v22H7V7h2.5a.5.5 0 0 0 0-1h-3a.5.5 0 0 0-.5.5v23a.5.5 0 0 0 .5.5h19a.5.5 0 0 0 .5-.5v-23a.5.5 0 0 0-.5-.5z"/><path d="m9.544 10.153.286 1.046c.011.042.048.066.069.102v.555c0 .586.245 1.115.636 1.495v.519l-1.392.522a1.779 1.779 0 0 0-1.148 1.658v1.45a.5.5 0 0 0 1 0v-1.45c0-.319.201-.609.5-.721l.534-.2a2.71 2.71 0 0 0 1.959.858c.752 0 1.452-.325 1.962-.863l.545.204c.299.112.5.402.5.721v1.45a.5.5 0 0 0 1 0v-1.45c0-.733-.461-1.4-1.148-1.658l-1.407-.528v-.513c.39-.379.634-.908.634-1.494v-.52a.508.508 0 0 0 .068-.164l.297-1.379c.062-.336-.013-.676-.21-.956s-.491-.465-.829-.521l-1.81-.302a1.249 1.249 0 0 0-1.394.843 1.13 1.13 0 0 0-.652 1.296zm3.53 1.703c0 .397-.224.73-.543.92-.058.034-.114.07-.176.093a1.113 1.113 0 0 1-.272.055 1.058 1.058 0 0 1-.195 0 1.088 1.088 0 0 1-.27-.055c-.061-.022-.117-.058-.174-.092a1.073 1.073 0 0 1-.545-.921v-.289h2.175v.289zm-1.955 2.864.092-.035a.5.5 0 0 0 .324-.468v-.323l.01.001c.143.031.29.049.442.049h.001l.014-.001c.147-.001.29-.018.429-.048l.01-.001v.324c0 .219.142.399.338.467l.002.001.083.031a1.867 1.867 0 0 1-1.745.003zm-.579-4.905a.115.115 0 0 1 .094-.045c.276 0 .5-.244.5-.52 0-.102.056-.164.089-.192a.243.243 0 0 1 .205-.057l1.81.302c.096.016.15.076.174.11a.26.26 0 0 1 .048.186l-.209.968h-2.556l-.179-.651a.116.116 0 0 1 .024-.101zM17.5 12h6a.5.5 0 0 0 .5-.5v-2a.5.5 0 0 0-.5-.5h-6a.5.5 0 0 0-.5.5v2a.5.5 0 0 0 .5.5zm.5-2h5v1h-5v-1zm6 9.5a.5.5 0 0 0-.5-.5h-15a.5.5 0 0 0-.5.5v2a.5.5 0 0 0 .5.5h15a.5.5 0 0 0 .5-.5v-2zM23 21H9v-1h14v1zm.5-8h-3a.5.5 0 0 0 0 1h3a.5.5 0 0 0 0-1zm-6 1h1a.5.5 0 0 0 0-1h-1a.5.5 0 0 0 0 1zm3 9h-10a.5.5 0 0 0 0 1h10a.5.5 0 0 0 0-1zm-11.65.149a.503.503 0 0 0-.7 0A.473.473 0 0 0 8 23.5c0 .069.01.13.04.189.02.061.06.12.11.16.04.05.1.09.16.11.06.031.12.041.19.041s.13-.01.19-.04a.372.372 0 0 0 .16-.11c.05-.04.09-.1.11-.16.03-.06.04-.121.04-.19 0-.13-.05-.26-.15-.351zM20.5 25h-10a.5.5 0 0 0 0 1h10a.5.5 0 0 0 0-1zm-11.65.149a.503.503 0 0 0-.7 0A.473.473 0 0 0 8 25.5c0 .14.05.26.15.35.09.1.22.15.35.15.07 0 .13-.01.19-.04a.372.372 0 0 0 .16-.11c.05-.04.09-.1.11-.16.03-.06.04-.121.04-.19 0-.13-.05-.26-.15-.351zM20.5 27h-10a.5.5 0 0 0 0 1h10a.5.5 0 0 0 0-1zm3-4h-1a.5.5 0 0 0 0 1h1a.5.5 0 0 0 0-1zm0 2h-1a.5.5 0 0 0 0 1h1a.5.5 0 0 0 0-1zm0 2h-1a.5.5 0 0 0 0 1h1a.5.5 0 0 0 0-1zm-15.19.04c-.06.02-.12.06-.16.109-.1.091-.15.221-.15.351s.05.26.15.35c.09.1.22.15.35.15.13 0 .26-.05.35-.15.1-.09.15-.22.15-.35s-.05-.26-.15-.351a.479.479 0 0 0-.54-.109zM17.5 16h6a.5.5 0 0 0 0-1h-6a.5.5 0 0 0 0 1zm0 2h4a.5.5 0 0 0 0-1h-4a.5.5 0 0 0 0 1z"/></svg>